<svg
  width="20"
  height="20"
  viewBox="0 0 20 20"
  fill="none"
  xmlns="http://www.w3.org/2000/svg"
>
  <circle cx="10" cy="10" r="10" fill="#FF8276" />
  <path
    fill-rule="evenodd"
    clip-rule="evenodd"
    d="M10.8839 10.0005L15 14.1167C15.2441 14.3607 15.2441 14.7565 15 15.0005C14.756 15.2446 14.3602 15.2446 14.1162 15.0005L10 10.8844L5.88393 15.0005C5.63985 15.2446 5.24413 15.2446 5.00005 15.0005C4.75597 14.7565 4.75597 14.3607 5.00005 14.1167L9.11616 10.0005L5.00005 5.88442C4.75597 5.64034 4.75597 5.24461 5.00005 5.00054C5.24412 4.75646 5.63985 4.75646 5.88393 5.00053L10 9.11665L14.1162 5.00054C14.3602 4.75646 14.756 4.75646 15 5.00054C15.2441 5.24461 15.2441 5.64034 15 5.88442L10.8839 10.0005Z"
    fill="white"
  />
</svg>
