<svg width="58" height="24" viewBox="0 0 58 24" fill="none" xmlns="http://www.w3.org/2000/svg">
<path d="M57.6437 6.36328H56.5227H56.1141C56.1141 6.36328 55.5274 8.74855 54.7102 10.7116L52.9605 14.9123L49.4194 6.37384H47.8897H46.7687H46.3601C46.3601 6.37384 47.7745 8.81188 48.5603 10.7222L51.6195 18.1102L50.9804 19.6511C50.1842 21.5509 48.7803 23.9995 48.7803 23.9995H49.1679H50.2994H50.6556L57.9999 6.39494H57.6437V6.36328Z" fill="#17202A"/>
<path d="M40.7028 6.36328H39.5818H39.1837C39.1837 6.36328 38.597 8.74855 37.7798 10.7116L36.0301 14.9123L32.4889 6.37384H30.9593H29.8383H29.4297C29.4297 6.37384 30.8441 8.81188 31.6298 10.7222L34.7415 18.2474H36.1139L41.0695 6.36328H40.7028Z" fill="#17202A"/>
<path d="M45.0399 13.8894V0H43.3321H42.2111H41.8025C41.8025 0 42.2111 2.48026 42.2111 4.34837V18.2378H43.9188H45.0399H45.4484C45.438 18.2273 45.0399 15.7576 45.0399 13.8894Z" fill="#17202A"/>
<path d="M27.9733 13.8885V6.36328H25.1445V14.0363C25.1445 15.5455 24.0025 16.7698 22.5882 16.7698C21.1738 16.7698 20.0318 15.5455 20.0318 14.0363V6.36328H17.203H16.7944C16.7944 6.36328 17.1926 8.82243 17.203 10.6905V13.8674C17.203 16.411 19.1308 18.4691 21.509 18.4691C23.0387 18.4691 24.3797 17.6247 25.1445 16.3371V18.2158H26.8522H27.9733H28.3819C28.3819 18.2263 27.9733 15.7566 27.9733 13.8885Z" fill="#17202A"/>
<path d="M11.9018 16.739H9.73306V1.75195H6.9043V18.2377H9.73306H16.2078V17.8683V16.739V16.3274C16.2078 16.3274 13.7562 16.739 11.9018 16.739Z" fill="#17202A"/>
<path d="M2.36778 11.1338C3.67546 11.1338 4.73555 10.0659 4.73555 8.74855C4.73555 7.4312 3.67546 6.36328 2.36778 6.36328C1.06009 6.36328 0 7.4312 0 8.74855C0 10.0659 1.06009 11.1338 2.36778 11.1338Z" fill="#17202A"/>
</svg>
